<svg xmlns="http://www.w3.org/2000/svg" viewBox="0 0 64 64"><path d="M23.734 28.125a2 2 0 0 0 2-2v-7.8A6.332 6.332 0 0 1 32.058 12a6.333 6.333 0 0 1 6.325 6.325v7.8a2 2 0 0 0 4 0v-7.8C42.383 12.632 37.753 8 32.058 8c-5.692 0-10.324 4.632-10.324 10.325v7.8a2 2 0 0 0 2 2z"/><path d="M55 23.63H44.384v2.495c0 2.206-1.794 4-4 4s-4-1.794-4-4V23.63h-8.65v2.495c0 2.206-1.793 4-4 4s-4-1.794-4-4V23.63H9c-.552 0-.893.436-.762.972L15.236 53.1C15.658 54.7 17.344 56 19 56h26c1.658 0 3.342-1.3 3.766-2.9L55.762 24.6c.13-.537-.21-.97-.762-.97z"/></svg>