<?xml version="1.0" encoding="iso-8859-1"?>
<!DOCTYPE svg PUBLIC "-//W3C//DTD SVG 1.1//EN" "http://www.w3.org/Graphics/SVG/1.1/DTD/svg11.dtd">
<svg xmlns="http://www.w3.org/2000/svg" xmlns:xlink="http://www.w3.org/1999/xlink" version="1.1" x="0px" y="0px" width="512px" height="512px" viewBox="0 0 612 582" style="enable-background:new 0 0 612 612;" xml:space="preserve">
<g>
	<path d="M279.845,428.388H220.35c-3.827,0-6.933,3.106-6.933,6.933c0,3.827,3.105,6.933,6.933,6.933h59.496    c3.827,0,6.933-3.105,6.933-6.933C286.778,431.494,283.675,428.388,279.845,428.388z" fill="CurrentColor"/>
	<path d="M279.845,360.029H220.35c-3.827,0-6.933,3.105-6.933,6.933c0,3.826,3.105,6.933,6.933,6.933h59.496    c3.827,0,6.933-3.106,6.933-6.933C286.778,363.135,283.675,360.029,279.845,360.029z" fill="CurrentColor"/>
	<path d="M279.845,496.743H220.35c-3.827,0-6.933,3.106-6.933,6.933c0,3.827,3.105,6.933,6.933,6.933h59.496    c3.827,0,6.933-3.105,6.933-6.933C286.778,499.85,283.675,496.743,279.845,496.743z" fill="CurrentColor"/>
	<path d="M173.516,428.388h-45.63c-3.827,0-6.933,3.106-6.933,6.933c0,3.827,3.106,6.933,6.933,6.933h45.63    c3.827,0,6.933-3.105,6.933-6.933C180.449,431.494,177.343,428.388,173.516,428.388z" fill="CurrentColor"/>
	<path d="M173.516,496.743h-31.765c-3.827,0-6.933,3.106-6.933,6.933c0,3.827,3.106,6.933,6.933,6.933h31.765    c3.827,0,6.933-3.105,6.933-6.933C180.449,499.85,177.343,496.743,173.516,496.743z" fill="CurrentColor"/>
	<path d="M386.178,496.743h-59.496c-3.827,0-6.933,3.106-6.933,6.933c0,3.827,3.105,6.933,6.933,6.933h59.496    c3.826,0,6.933-3.105,6.933-6.933C393.11,499.85,390.008,496.743,386.178,496.743z" fill="CurrentColor"/>
	<path d="M173.516,360.029h-59.496c-3.827,0-6.933,3.105-6.933,6.933c0,3.826,3.106,6.933,6.933,6.933h59.496    c3.827,0,6.933-3.106,6.933-6.933C180.449,363.135,177.343,360.029,173.516,360.029z" fill="CurrentColor"/>
	<path d="M492.51,360.029h-59.496c-3.826,0-6.933,3.105-6.933,6.933c0,3.826,3.106,6.933,6.933,6.933h59.496    c3.827,0,6.933-3.106,6.933-6.933C499.442,363.135,496.336,360.029,492.51,360.029z" fill="CurrentColor"/>
	<path d="M478.645,428.388h-45.631c-3.826,0-6.933,3.106-6.933,6.933c0,3.827,3.106,6.933,6.933,6.933h45.631    c3.827,0,6.933-3.105,6.933-6.933C485.577,431.494,482.471,428.388,478.645,428.388z" fill="CurrentColor"/>
	<path d="M611.938,294.101c-0.069-10.198-0.142-21.754,0.052-28.174c0.198-6.409-2.374-10.069-4.562-12.018    c-3.934-3.491-8.714-3.498-10.627-3.328H367.608l20.455-39.984c16-31.28,34.801-68.033,55.104-107.677    c9.497-18.61,19.335-37.869,20.312-39.71c3.768-7.394,4.253-14.226,1.438-20.302c-2.461-5.31-7.359-9.778-14.947-13.646    c-4.231-2.173-5.483-2.752-6.933-3.421c-1.227-0.565-2.6-1.203-6.329-3.082c-0.309-0.218-0.638-0.419-0.984-0.593    c-0.645-0.322-1.286-0.655-1.924-0.991c-1.061-0.551-2.101-1.092-2.877-1.453c-8.572-4.398-15.785-5.56-22.066-3.539    c-5.553,1.789-10.06,6-13.387,12.503c-0.798,1.542-8.208,15.98-20.274,39.637l-45.51,88.917    c-18.61,36.369-34.188,66.813-45.044,87.992c-0.926,1.841-1.827,3.629-2.704,5.352H18.125c-2.039-0.135-8.95-0.19-13.789,4.253    C1.501,257.441,0,260.997,0,265.115v42.518c0,0.506,0.056,1.005,0.163,1.497c0.974,4.409,3.761,9.04,8.083,11.622    c0.045,1.092,0.163,2.219,0.357,3.377c2.416,14.461,39.637,219.693,41.221,228.419c0,0.01,0.003,0.017,0.003,0.024v28.16    c0.121,6.381,4.645,15.903,16.607,15.986c4.985,0.038,123.022,0.059,241.334,0.059c118.17,0,236.613-0.021,242.946-0.059    c6.094-0.045,9.813-2.545,11.861-4.635c4.33-4.416,4.476-10.045,4.462-11.04v-31.366c0-1.605-0.545-3.082-1.46-4.257    c5.785-33.495,36.323-210.335,38.233-222.63c0.118-0.794,0.205-1.567,0.253-2.319c5.006-2.836,7.928-8.035,7.928-14.617    C611.993,302.68,611.965,298.562,611.938,294.101z M598.072,294.194c0.027,4.42,0.056,8.51,0.056,11.664    c0,2.093-0.492,2.714-2.385,3.008c-1.952,0.306-3.682,1.429-4.756,3.092c-1.074,1.661-1.387,3.699-0.859,5.605    c0.086,0.318,0.26,1.265-0.021,3.134c-1.861,11.993-33.404,194.681-39.131,227.798c-0.35,2.015,0.212,4.084,1.525,5.646    c0.212,0.246,0.434,0.479,0.669,0.69v26.302c0,0.007-0.156,0.895-0.499,1.241c-0.281,0.284-1.071,0.468-2.052,0.475    c-12.663,0.073-474.121,0.073-484.083,0c-1.133-0.007-2.679-0.021-2.846-2.253V551.31c0-0.835-0.153-1.64-0.434-2.381    c-3.067-16.912-38.67-213.271-40.979-227.092c-0.263-1.587-0.246-2.908,0.049-3.809c0.697-2.111,0.329-4.431-0.974-6.232    c-1.307-1.803-3.4-2.867-5.626-2.867c-0.863,0-1.556-1.539-1.858-2.336v-41.478c0-0.069,0.003-0.122,0-0.163    c0.648-0.35,2.271-0.585,3.418-0.53c0.194,0.018,0.392,0.028,0.589,0.028h268.306c2.603,0,4.984-1.459,6.17-3.778    c1.466-2.867,3.043-5.958,4.655-9.165c10.828-21.134,26.409-51.578,45.021-87.95l45.509-88.921    c12.049-23.62,19.442-38.033,20.257-39.603c2.416-4.718,4.597-5.421,5.311-5.654c2.568-0.808,6.423,0.076,11.713,2.791    c0.828,0.388,1.685,0.839,2.555,1.296c0.381,0.197,0.766,0.395,1.147,0.596c0.298,0.215,0.616,0.409,0.953,0.582    c4.741,2.396,6.333,3.13,7.74,3.782c1.338,0.621,2.495,1.158,6.437,3.182c4.673,2.381,7.588,4.777,8.68,7.127    c0.604,1.307,1.137,3.577-1.157,8.076c-0.784,1.474-6.68,13.006-20.358,39.797c-20.302,39.641-39.1,76.394-55.1,107.677    l-25.62,50.071c-1.099,2.149-1.001,4.714,0.257,6.773c1.258,2.062,3.501,3.317,5.913,3.317h240.895    c0.343-0.031,0.479,0,0.818-0.052c0.031,0,0.059-0.007,0.093-0.003c0.039,0.243,0.07,0.604,0.053,1.113    C597.927,272.18,598.007,283.875,598.072,294.194z" fill="CurrentColor"/>
	<path d="M386.178,428.388h-59.496c-3.827,0-6.933,3.106-6.933,6.933c0,3.827,3.105,6.933,6.933,6.933h59.496    c3.826,0,6.933-3.105,6.933-6.933C393.11,431.494,390.008,428.388,386.178,428.388z" fill="CurrentColor"/>
	<path d="M464.779,496.743h-31.766c-3.826,0-6.933,3.106-6.933,6.933c0,3.827,3.106,6.933,6.933,6.933h31.766    c3.827,0,6.933-3.105,6.933-6.933C471.712,499.85,468.605,496.743,464.779,496.743z" fill="CurrentColor"/>
	<path d="M386.178,360.029h-59.496c-3.827,0-6.933,3.105-6.933,6.933c0,3.826,3.105,6.933,6.933,6.933h59.496    c3.826,0,6.933-3.106,6.933-6.933C393.11,363.135,390.008,360.029,386.178,360.029z" fill="CurrentColor"/>
	<path d="M39.54,296.648v-20.212c0-3.827-3.106-6.933-6.933-6.933s-6.933,3.106-6.933,6.933v20.212    c0,3.827,3.106,6.933,6.933,6.933S39.54,300.475,39.54,296.648z" fill="CurrentColor"/>
	<path d="M82.009,543.466c-3.827,0-6.933,3.105-6.933,6.933v20.212c0,3.827,3.106,6.933,6.933,6.933s6.933-3.105,6.933-6.933    v-20.212C88.942,546.568,85.839,543.466,82.009,543.466z" fill="CurrentColor"/>
	<path d="M78.966,506.553c3.744-0.797,6.135-4.481,5.334-8.226l-35.928-168.42c-0.797-3.747-4.502-6.143-8.226-5.335    c-3.743,0.797-6.135,4.481-5.334,8.226L70.74,501.219c0.693,3.255,3.57,5.487,6.773,5.487    C77.995,506.706,78.48,506.66,78.966,506.553z" fill="CurrentColor"/>
</g>
</svg>
