<svg xmlns="http://www.w3.org/2000/svg" width="512" height="512" viewBox="0 0 612 582"><g fill="CurrentColor"><path d="M279.845 428.388H220.35a6.936 6.936 0 0 0-6.933 6.933 6.935 6.935 0 0 0 6.933 6.934h59.496a6.935 6.935 0 0 0 6.933-6.933 6.935 6.935 0 0 0-6.935-6.932zM279.845 360.03H220.35a6.935 6.935 0 0 0-6.933 6.932 6.936 6.936 0 0 0 6.933 6.933h59.496a6.936 6.936 0 0 0 6.933-6.933 6.935 6.935 0 0 0-6.935-6.933zM279.845 496.743H220.35a6.936 6.936 0 0 0-6.933 6.933 6.935 6.935 0 0 0 6.933 6.933h59.496a6.935 6.935 0 0 0 6.933-6.934 6.936 6.936 0 0 0-6.935-6.933zM173.516 428.388h-45.63a6.936 6.936 0 0 0-6.933 6.933 6.936 6.936 0 0 0 6.933 6.934h45.63a6.935 6.935 0 0 0 6.933-6.933 6.936 6.936 0 0 0-6.934-6.932zM173.516 496.743H141.75a6.936 6.936 0 0 0-6.932 6.933 6.936 6.936 0 0 0 6.933 6.933h31.766a6.935 6.935 0 0 0 6.933-6.934 6.936 6.936 0 0 0-6.934-6.933zM386.178 496.743h-59.496a6.936 6.936 0 0 0-6.933 6.933 6.935 6.935 0 0 0 6.932 6.933h59.496a6.936 6.936 0 0 0 6.933-6.934 6.935 6.935 0 0 0-6.932-6.933zM173.516 360.03H114.02a6.935 6.935 0 0 0-6.933 6.932 6.936 6.936 0 0 0 6.933 6.933h59.496a6.936 6.936 0 0 0 6.933-6.933 6.936 6.936 0 0 0-6.934-6.933zM492.51 360.03h-59.496a6.936 6.936 0 0 0-6.933 6.932 6.936 6.936 0 0 0 6.934 6.933h59.496a6.936 6.936 0 0 0 6.933-6.933 6.937 6.937 0 0 0-6.933-6.933zM478.645 428.388h-45.63a6.936 6.936 0 0 0-6.934 6.933 6.936 6.936 0 0 0 6.934 6.934h45.63a6.935 6.935 0 0 0 6.934-6.933 6.937 6.937 0 0 0-6.933-6.932z"/><path d="M611.938 294.1c-.07-10.197-.142-21.753.052-28.173.198-6.41-2.374-10.07-4.562-12.018-3.934-3.492-8.714-3.5-10.627-3.33H367.61l20.455-39.983c16-31.28 34.8-68.033 55.104-107.677 9.497-18.61 19.335-37.87 20.312-39.71 3.767-7.394 4.252-14.226 1.437-20.302-2.46-5.31-7.36-9.778-14.947-13.646-4.23-2.173-5.483-2.752-6.933-3.42-1.227-.566-2.6-1.204-6.33-3.083a7.76 7.76 0 0 0-.983-.594 99.757 99.757 0 0 1-1.924-.99c-1.06-.552-2.1-1.093-2.877-1.454-8.572-4.398-15.785-5.56-22.066-3.54-5.553 1.79-10.06 6-13.387 12.504-.798 1.542-8.208 15.98-20.274 39.637l-45.51 88.917c-18.61 36.37-34.188 66.813-45.044 87.992-.926 1.84-1.827 3.63-2.704 5.352H18.125c-2.04-.135-8.95-.19-13.79 4.253C1.502 257.44 0 260.997 0 265.115v42.518c0 .506.056 1.005.163 1.497.974 4.41 3.76 9.04 8.083 11.622.045 1.092.163 2.22.357 3.377 2.416 14.46 39.637 219.692 41.22 228.418 0 .01.004.017.004.024v28.16c.12 6.38 4.645 15.903 16.607 15.986 4.985.038 123.022.06 241.334.06 118.17 0 236.613-.022 242.946-.06 6.094-.045 9.813-2.545 11.86-4.635 4.33-4.416 4.477-10.045 4.463-11.04v-31.366a6.904 6.904 0 0 0-1.46-4.257c5.785-33.495 36.323-210.335 38.233-222.63.118-.794.205-1.567.253-2.32 5.006-2.835 7.928-8.034 7.928-14.616.003-3.174-.025-7.292-.052-11.753zm-13.866.094c.027 4.42.056 8.51.056 11.664 0 2.093-.492 2.714-2.385 3.008a6.94 6.94 0 0 0-5.615 8.697c.086.318.26 1.265-.02 3.134-1.862 11.993-33.405 194.68-39.132 227.798a6.938 6.938 0 0 0 2.194 6.336v26.303c0 .007-.156.895-.5 1.24-.28.285-1.07.47-2.05.476-12.664.072-474.122.072-484.084 0-1.133-.008-2.68-.022-2.846-2.254V551.31a6.71 6.71 0 0 0-.434-2.38c-3.067-16.913-38.67-213.272-40.98-227.093-.262-1.587-.245-2.908.05-3.81.697-2.11.33-4.43-.974-6.23a6.947 6.947 0 0 0-5.626-2.868c-.863 0-1.556-1.54-1.858-2.337v-41.478c0-.07.003-.122 0-.163.648-.35 2.27-.585 3.418-.53a6.4 6.4 0 0 0 .59.028H286.18a6.93 6.93 0 0 0 6.17-3.778 1479.09 1479.09 0 0 0 4.656-9.165c10.828-21.134 26.41-51.578 45.02-87.95l45.51-88.92c12.05-23.62 19.442-38.034 20.257-39.604 2.416-4.718 4.597-5.42 5.31-5.654 2.57-.81 6.424.075 11.714 2.79.828.388 1.685.84 2.555 1.296.38.197.766.395 1.147.596.297.215.615.41.952.582 4.74 2.396 6.333 3.13 7.74 3.782 1.338.62 2.495 1.158 6.437 3.182 4.672 2.38 7.587 4.777 8.68 7.127.603 1.307 1.136 3.577-1.158 8.076-.784 1.475-6.68 13.007-20.358 39.798-20.302 39.64-39.1 76.394-55.1 107.677l-25.62 50.07a6.934 6.934 0 0 0 6.17 10.09H597.16c.342-.03.478 0 .817-.05.03 0 .06-.008.093-.004.04.244.07.605.053 1.114-.196 6.676-.116 18.37-.05 28.69z"/><path d="M386.178 428.388h-59.496a6.936 6.936 0 0 0-6.933 6.933 6.935 6.935 0 0 0 6.932 6.934h59.496a6.936 6.936 0 0 0 6.933-6.933 6.934 6.934 0 0 0-6.932-6.932zM464.78 496.743h-31.767a6.936 6.936 0 0 0-6.933 6.933 6.936 6.936 0 0 0 6.933 6.933h31.766a6.935 6.935 0 0 0 6.932-6.934 6.937 6.937 0 0 0-6.933-6.933zM386.178 360.03h-59.496a6.935 6.935 0 0 0-6.933 6.932 6.936 6.936 0 0 0 6.932 6.933h59.496a6.936 6.936 0 0 0 6.933-6.933 6.934 6.934 0 0 0-6.932-6.933zM39.54 296.648v-20.212c0-3.827-3.106-6.933-6.933-6.933s-6.933 3.106-6.933 6.933v20.212c0 3.827 3.106 6.933 6.933 6.933s6.933-3.105 6.933-6.932zM82.01 543.466a6.935 6.935 0 0 0-6.934 6.933v20.21c0 3.828 3.106 6.934 6.933 6.934s6.932-3.105 6.932-6.933V550.4a6.93 6.93 0 0 0-6.933-6.934zM78.966 506.553a6.93 6.93 0 0 0 5.334-8.226l-35.928-168.42c-.797-3.747-4.502-6.143-8.226-5.335a6.93 6.93 0 0 0-5.334 8.226l35.928 168.42a6.934 6.934 0 0 0 8.226 5.335z"/></g></svg>